<?xml version="1.0" standalone="no"?>
<!DOCTYPE svg PUBLIC "-//W3C//DTD SVG 20010904//EN"
 "http://www.w3.org/TR/2001/REC-SVG-20010904/DTD/svg10.dtd">
<svg version="1.0" xmlns="http://www.w3.org/2000/svg"
 width="32.000000pt" height="32.000000pt" viewBox="0 0 32.000000 32.000000"
 preserveAspectRatio="xMidYMid meet">
<metadata>
Created by potrace 1.15, written by Peter Selinger 2001-2017
</metadata>
<g transform="translate(0.000000,32.000000) scale(0.100000,-0.100000)"
fill="#000000" stroke="none">
<path d="M58 234 c-61 -48 -68 -65 -42 -91 10 -11 14 -28 12 -50 -3 -27 -1
-32 11 -27 32 13 87 19 121 14 l35 -6 -40 -8 c-66 -12 -79 -29 -17 -21 77 9
81 11 84 63 2 34 7 47 18 47 8 0 17 3 20 7 5 7 -124 118 -137 118 -5 0 -34
-21 -65 -46z"/>
</g>
</svg>
